# xmcd CD database file
# Copyright (C) 1993-1998 Ti Kan
# 
# Track frame offsets:
#     150
#     10260
#     23447
#     34795
#     47070
#     59505
#     68430
#     80652
#     87765
#     102480
#     114500
#     127060
#     144632
#     155837
# 
# Disc length: 2236 seconds
# 
# Revision: 1
# Processed by: cddbd v1.4b41PL1 Copyright (c) Steve Scherf et al.
# Submitted via: DiscPlay 4.0.4
# 
DISCID=b908ba0e
DTITLE=The Turtles - The Turtles Present The Battle Of The Bands
DYEAR=1900
DGENRE=
TTITLE0=The Battle Of The Bands
TTITLE1=The Last Thing I Remember
TTITLE2=Elenore
TTITLE3=Too Much Heartsick Felling
TTITLE4=Oh, Daddy
TTITLE5=Buzzsaw
TTITLE6=Surfer Dan
TTITLE7=I'm Chief Kamanawanalea (We're The Royal Macadamia Nuts)
TTITLE8=You Showed Me
TTITLE9=Food
TTITLE10=Chicken Little Was Right
TTITLE11=Earth Anthem
TTITLE12=Sound Asleep
TTITLE13=The Story Of Rock And Roll
EXTD=
EXTT0=
EXTT1=
EXTT2=
EXTT3=
EXTT4=
EXTT5=
EXTT6=
EXTT7=
EXTT8=
EXTT9=
EXTT10=
EXTT11=
EXTT12=
EXTT13=
PLAYORDER=
